<?xml version="1.0" encoding="utf-8"?>
<!-- Generator: Adobe Illustrator 26.3.1, SVG Export Plug-In . SVG Version: 6.00 Build 0)  -->
<svg version="1.1" id="Layer_1" xmlns="http://www.w3.org/2000/svg" xmlns:xlink="http://www.w3.org/1999/xlink" x="0px" y="0px"
	 viewBox="0 0 96 96" style="enable-background:new 0 0 96 96;" xml:space="preserve">
<g transform="scale(0.100000,-0.100000)">
	<path d="M304-70.4c-71.6-8.4-122-34.3-174.5-89.4c-11-11.8-21.3-21.3-23.1-21.3c-1.4,0-13,9.8-25.7,21.6
		c-30,28-42.7,31.2-47.6,11.3c-2.9-10.7,10.1-44.1,25.4-66.1c7.2-10.4,13.3-20.2,13.3-21.9c0-1.4-4.3-11.5-9.8-22.2
		C28.7-324,14-386.6,14-460.2c0-38.7,0.9-46.5,7.2-66.4c8.7-27.7,18.8-43.9,39.8-63.8c32-30,83.7-46.7,144.8-46.7
		c33.5,0,47,2.6,66.9,12.4c6.9,3.2,13.3,4.9,14.4,4c2.6-2.9-4-23.7-8.9-27.7c-2.3-2-35.2-9.8-73-17.6
		c-79.3-16.4-76.2-15.6-106.2-25.1c-67.2-21.3-85.4-44.4-71.8-90.3c5.8-19.6,28-43.6,51.4-55.4c47.6-23.9,116.8-26.5,168.2-5.8
		c47.6,19.3,82.2,57.1,97.8,106.7c15,47.9,13.3,45.6,42.4,60C453.7-641.9,504.5-595.5,527-547c4.3,9.2,8.4,16.7,9.2,16.7
		c0.9,0,5.8-9.2,11-20.2c11.3-24.5,40.1-56.3,63.8-70.4c36.6-22.5,72.7-30.6,134.2-30.6c37.2,0,48.5,1.2,71.8,6.9
		c61.2,15.6,109.6,50.2,131,93.2c8.9,18.2,10.7,25.1,11.8,45.3c2,39.2-7.5,46.7-28.9,22.8C883.6-536,840-560.8,782-567.8
		c-67.2-8.4-110.5,16.7-128.4,73.6c-5.5,17.6-6.3,26.3-6.1,70.7c0,45.3,0.9,53.7,7.8,80.5c13,49.3,38.4,107,47,107
		c2.6,0,15.3-3.2,28.3-6.9c48.2-14.7,88.6-18.5,125.5-12.1c60.9,10.7,95.5,44.1,95.5,92.9c0,60.6-39.5,90.9-119.4,91.2
		c-51.9,0.3-98.4-15.3-145.1-48.5c-9.8-6.9-19.3-12.7-21.1-12.7c-1.7,0-15.6,11-30.3,24.5c-21.3,19.3-29.1,24.5-35.8,24.5
		c-23.1,0-17-37.2,13.3-81.1l10.1-14.7l-6.6-8.9c-54.5-74.1-88.9-173.1-89.1-258.2v-23.7l-24.8-26c-13.8-14.1-26.8-28.3-29.1-31.7
		c-6.9-10.1-73.6-69.2-77.6-69.2c-5.2,0-5.8-4,5.8,40.7c5.5,21.3,11.5,49.3,13.3,62.6c3.2,20.5,2.9,25.7-1.4,38.7
		c-10.4,31.4-31.4,55.7-51.4,59.1c-8.1,1.2-11.5,0-20.2-7.8c-15.3-13.3-25.1-45-32.3-103.9c-1.2-8.7-3.8-18.8-6.1-22.2
		c-5.2-8.4-29.1-20.5-46.7-23.7c-17.6-3.5-58.6,2.6-74.1,10.7c-14.4,7.2-30.6,24.2-38.4,39.8c-6.9,13.6-15,53.4-15,73.6
		c0,40.7,24.2,141.1,34.3,141.1c1.2,0,9.8-2.6,18.8-5.8c38.4-13,72.4-18.2,112.5-16.7c58.6,2.3,97.8,17.6,126.7,49.3
		c39.2,43.3,43.9,120,9.8,157.5c-8.9,9.5-36.6,22.8-57.4,27.4C354.4-71.8,317.8-68.9,304-70.4z M349.5-151.4
		c18.5-11,26.3-32.9,19.3-54.2c-4.9-15.3-21.9-32.9-38.9-40.7c-24.5-11.5-86.3-9.2-130.4,4.9c-13,4-12.1,9.8,4.6,32
		c25.4,33.5,57.4,56.5,87.7,62.9C309.1-142.8,339.2-145.4,349.5-151.4z M859-151.7c8.7-6.3,13-20.5,9.2-30.6
		c-4.9-12.1-15.9-17-42.1-18.5c-34-1.7-85.1,7.2-85.1,15.3c0,9.5,42.4,34.9,65.8,38.9C826.4-142.8,850.4-145.4,859-151.7z
		 M243.4-740c-19-32.6-41.8-51.9-68.4-58.6c-11-2.9-17.6-2.6-36.1,1.2c-28,5.8-36.6,11.5-37.8,26c-0.9,10.1-0.3,11,12.4,16.4
		c11.3,5.2,42.4,13,88,22.8c7.2,1.4,20.2,4.6,28.9,6.6c8.7,2.3,17,2.9,18.5,1.7C250.3-725,247.7-732.2,243.4-740z"/>
</g>
</svg>
